<?xml version="1.0" encoding="UTF-8"?>
<svg version="1.1" xmlns="http://www.w3.org/2000/svg" width="144" height="144">
<path d="M0 0 C2.82413916 1.43162214 3.92740894 2.64014767 5.76171875 5.18383789 C12.94688783 14.29635968 12.94688783 14.29635968 23.17138672 19.16723633 C30.77625003 19.96915178 38.3348116 19.78954655 45.95483398 19.25585938 C48.57421875 19.30493164 48.57421875 19.30493164 50.57421875 21.30493164 C50.60742188 23.90844727 50.60742188 23.90844727 50.35546875 27.21118164 C49.30123625 42.61071785 49.30123625 42.61071785 55.60546875 56.09008789 C59.38335467 59.97452176 63.46715437 63.43958861 67.82421875 66.65869141 C69.8166757 68.533013 70.3089573 69.60550628 70.57421875 72.30493164 C69.5625 74.02368164 69.5625 74.02368164 67.88671875 75.80493164 C67.25121094 76.52293945 66.61570313 77.24094727 65.9609375 77.98071289 C63.57421875 80.30493164 63.57421875 80.30493164 60.46875 82.47290039 C55.48034907 86.16254163 52.11072571 89.32940156 50.97070312 95.65209961 C50.32989957 103.31127459 50.39669902 110.92924833 50.70263672 118.60620117 C50.57421875 121.30493164 50.57421875 121.30493164 48.57421875 123.30493164 C45.97070312 123.33813477 45.97070312 123.33813477 42.66796875 123.08618164 C27.26843254 122.03194914 27.26843254 122.03194914 13.7890625 128.33618164 C9.90462863 132.11406756 6.43956178 136.19786726 3.22045898 140.55493164 C1.34613739 142.54738859 0.27364411 143.03967019 -2.42578125 143.30493164 C-4.14453125 142.29321289 -4.14453125 142.29321289 -5.92578125 140.61743164 C-6.64378906 139.98192383 -7.36179687 139.34641602 -8.1015625 138.69165039 C-10.42578125 136.30493164 -10.42578125 136.30493164 -12.59375 133.19946289 C-16.28339124 128.21106196 -19.45025117 124.8414386 -25.77294922 123.70141602 C-33.4321242 123.06061246 -41.05009794 123.12741191 -48.72705078 123.43334961 C-51.42578125 123.30493164 -51.42578125 123.30493164 -53.42578125 121.30493164 C-53.45898438 118.70141602 -53.45898438 118.70141602 -53.20703125 115.39868164 C-52.15279875 99.99914544 -52.15279875 99.99914544 -58.45703125 86.51977539 C-62.23491717 82.63534152 -66.31871687 79.17027467 -70.67578125 75.95117188 C-72.6682382 74.07685028 -73.1605198 73.004357 -73.42578125 70.30493164 C-72.4140625 68.58618164 -72.4140625 68.58618164 -70.73828125 66.80493164 C-70.10277344 66.08692383 -69.46726562 65.36891602 -68.8125 64.62915039 C-66.42578125 62.30493164 -66.42578125 62.30493164 -63.3203125 60.13696289 C-58.33191157 56.44732165 -54.96228821 53.28046172 -53.82226562 46.95776367 C-53.18146207 39.29858869 -53.24826152 31.68061495 -53.55419922 24.00366211 C-53.42578125 21.30493164 -53.42578125 21.30493164 -51.42578125 19.30493164 C-48.82226563 19.27172852 -48.82226563 19.27172852 -45.51953125 19.52368164 C-30.09861194 20.55986769 -30.09861194 20.55986769 -16.5703125 14.27368164 C-12.64033368 10.49298109 -9.12416634 6.4101798 -5.8449707 2.05493164 C-3.82001793 -0.44203404 -3.14694724 -0.9017068 0 0 Z M-4.73828125 32.45727539 C-5.62515625 33.37637695 -6.51203125 34.29547852 -7.42578125 35.24243164 C-12.63867035 40.62958883 -15.17251188 41.47876633 -22.55078125 41.86743164 C-23.68193359 41.93220703 -23.68193359 41.93220703 -24.8359375 41.99829102 C-26.69900013 42.10441484 -28.56236649 42.20518165 -30.42578125 42.30493164 C-30.41675781 43.36711914 -30.40773438 44.42930664 -30.3984375 45.52368164 C-30.56409676 58.38127209 -30.56409676 58.38127209 -34.73828125 63.05493164 C-35.93803448 64.17075152 -37.16484861 65.25874299 -38.42578125 66.30493164 C-39.23015625 67.12993164 -40.03453125 67.95493164 -40.86328125 68.80493164 C-41.37890625 69.29993164 -41.89453125 69.79493164 -42.42578125 70.30493164 C-40.9599611 73.72773681 -39.0451587 75.86973647 -36.36328125 78.42993164 C-31.59251874 83.00227184 -31.20578951 85.92788959 -30.86328125 92.42993164 C-30.82009766 93.1840332 -30.77691406 93.93813477 -30.73242188 94.71508789 C-30.62629805 96.57815052 -30.52553124 98.44151688 -30.42578125 100.30493164 C-29.36359375 100.2959082 -28.30140625 100.28688477 -27.20703125 100.27758789 C-14.3494408 100.44324715 -14.3494408 100.44324715 -9.67578125 104.61743164 C-8.55996137 105.81718487 -7.4719699 107.043999 -6.42578125 108.30493164 C-5.60078125 109.10930664 -4.77578125 109.91368164 -3.92578125 110.74243164 C-3.43078125 111.25805664 -2.93578125 111.77368164 -2.42578125 112.30493164 C0.99702392 110.83911149 3.13902358 108.92430909 5.69921875 106.24243164 C10.27155895 101.47166913 13.1971767 101.0849399 19.69921875 100.74243164 C20.45332031 100.69924805 21.20742187 100.65606445 21.984375 100.61157227 C23.84743763 100.50544844 25.71080399 100.40468163 27.57421875 100.30493164 C27.56519531 99.24274414 27.55617188 98.18055664 27.546875 97.08618164 C27.71253426 84.2285912 27.71253426 84.2285912 31.88671875 79.55493164 C33.08647198 78.43911177 34.31328611 77.35112029 35.57421875 76.30493164 C36.37859375 75.47993164 37.18296875 74.65493164 38.01171875 73.80493164 C38.52734375 73.30993164 39.04296875 72.81493164 39.57421875 72.30493164 C38.1083986 68.88212647 36.1935962 66.74012681 33.51171875 64.17993164 C28.74095624 59.60759144 28.35422701 56.68197369 28.01171875 50.17993164 C27.96853516 49.42583008 27.92535156 48.67172852 27.88085938 47.89477539 C27.77473555 46.03171276 27.67396874 44.1683464 27.57421875 42.30493164 C26.51203125 42.31395508 25.44984375 42.32297852 24.35546875 42.33227539 C11.4978783 42.16661613 11.4978783 42.16661613 6.82421875 37.99243164 C5.70575965 36.79513842 4.61713564 35.56857168 3.57421875 34.30493164 C2.2583124 32.95439618 0.93343461 31.61186997 -0.42578125 30.30493164 C-2.70830645 30.0778302 -2.70830645 30.0778302 -4.73828125 32.45727539 Z " fill="#FF0D0D" transform="translate(73.42578125,0.695068359375)"/>
</svg>
